<svg width="512" height="512" viewBox="0 0 512 512" fill="none" xmlns="http://www.w3.org/2000/svg">
<path d="M239.358 388.163L138.337 489.184C117.256 510.264 87.0995 516.737 60.4452 508.601L210.121 358.926L239.358 388.163Z" fill="#F97316"/>
<path d="M194.82 343.625L39.7248 498.719C35.6503 495.968 31.7776 492.79 28.1713 489.184L22.8166 483.829C19.0453 480.058 15.7411 475.996 12.9049 471.716L167.908 316.713L194.82 343.625Z" fill="#F97316"/>
<path d="M152.608 301.412L3.18233 450.837C-4.6201 424.36 1.92508 394.555 22.8166 373.664L123.837 272.642L152.608 301.412Z" fill="#F97316"/>
<path d="M448.052 509.581C422.29 516.144 393.826 509.346 373.664 489.184L22.816 138.336C2.65383 118.174 -4.14548 89.7094 2.4179 63.9473L448.052 509.581Z" fill="url(#paint0_linear_7_57)"/>
<path d="M498.143 473.117C495.527 476.884 492.542 480.472 489.185 483.829L483.829 489.184C479.427 493.585 474.628 497.348 469.549 500.476L11.5224 42.4493C14.6503 37.3707 18.4143 32.5726 22.816 28.1709L28.1707 22.8151C31.5277 19.4582 35.1147 16.4715 38.8812 13.8554L498.143 473.117Z" fill="url(#paint1_linear_7_57)"/>
<path d="M59.3638 3.73665C86.2804 -4.90982 116.97 1.44932 138.336 22.8151L489.185 373.664C510.551 395.03 516.91 425.719 508.263 452.636L59.3638 3.73665Z" fill="url(#paint2_linear_7_57)"/>
<path d="M355.391 209.576L228.264 79.745C254.952 79.745 306.201 79.1411 311.032 79.745C315.36 80.2859 351.063 81.9088 371.62 122.481C392.176 163.053 368.915 198.396 355.391 209.576Z" fill="#F97316"/>
<path d="M371.661 36.6816C386.61 52.9757 412.265 80.0226 433.831 99.7609C447.968 112.7 462.979 121.702 475.429 127.559C472.887 130.999 469.96 134.227 466.647 137.175C447.277 154.413 420.322 157.234 398.556 146.476C396.576 121.428 383.721 96.6338 361.258 79.4906C359.226 77.9398 357.152 76.483 355.047 75.1164C356.058 61.1398 361.652 47.4896 371.661 36.6816Z" fill="#F97316"/>
<path d="M388.609 23.7048C413.307 10.8171 444.354 16.0191 463.469 38.1175L472.439 48.4877C487.576 65.9875 491.38 89.6338 484.457 110.22C465.365 98.5629 449.313 84.5333 441.945 77.0404L388.609 23.7048Z" fill="#F97316"/>
<path d="M388.609 23.7048C413.307 10.8171 444.354 16.0191 463.469 38.1175L472.439 48.4877C487.576 65.9875 491.38 89.6338 484.457 110.22C465.365 98.5629 449.313 84.5333 441.945 77.0404L388.609 23.7048Z" fill="#F97316"/>
<path d="M371.661 36.6816C386.61 52.9757 412.265 80.0226 433.831 99.7609C447.968 112.7 462.979 121.702 475.429 127.559C472.887 130.999 469.96 134.227 466.647 137.175C447.277 154.413 420.322 157.234 398.556 146.476C396.576 121.428 383.721 96.6338 361.258 79.4906C359.226 77.9398 357.152 76.483 355.047 75.1164C356.058 61.1398 361.652 47.4896 371.661 36.6816Z" fill="url(#paint3_linear_7_57)"/>
<defs>
<linearGradient id="paint0_linear_7_57" x1="256" y1="0" x2="256" y2="511.999" gradientUnits="userSpaceOnUse">
<stop stop-color="#3B82F6"/>
<stop offset="1" stop-color="#172554"/>
</linearGradient>
<linearGradient id="paint1_linear_7_57" x1="256" y1="0" x2="256" y2="511.999" gradientUnits="userSpaceOnUse">
<stop stop-color="#3B82F6"/>
<stop offset="1" stop-color="#172554"/>
</linearGradient>
<linearGradient id="paint2_linear_7_57" x1="256" y1="0" x2="256" y2="511.999" gradientUnits="userSpaceOnUse">
<stop stop-color="#3B82F6"/>
<stop offset="1" stop-color="#172554"/>
</linearGradient>
<linearGradient id="paint3_linear_7_57" x1="421.389" y1="76.4989" x2="374.325" y2="202.543" gradientUnits="userSpaceOnUse">
<stop stop-color="#3B82F6"/>
<stop offset="0.754808" stop-color="#172554"/>
</linearGradient>
</defs>
</svg>
